<svg width="19" height="19" viewBox="0 0 19 19" fill="none" xmlns="http://www.w3.org/2000/svg">
<g id="Github">
<path id="Shape" fill-rule="evenodd" clip-rule="evenodd" d="M9.50008 0.445312C4.37697 0.445312 0.222656 4.59886 0.222656 9.72273C0.222656 13.8217 2.88092 17.2993 6.56712 18.5261C7.03078 18.6119 7.201 18.3248 7.201 18.0798C7.201 17.8585 7.1924 17.1277 7.1884 16.3525C4.60742 16.9137 4.0628 15.2579 4.0628 15.2579C3.64077 14.1855 3.03271 13.9004 3.03271 13.9004C2.19097 13.3246 3.09616 13.3364 3.09616 13.3364C4.02777 13.4019 4.51831 14.2925 4.51831 14.2925C5.34576 15.7108 6.68864 15.3007 7.21805 15.0637C7.30132 14.4641 7.54175 14.0548 7.80707 13.8231C5.74643 13.5885 3.58024 12.793 3.58024 9.23818C3.58024 8.2253 3.94266 7.39769 4.53613 6.74799C4.43981 6.51432 4.12225 5.57072 4.62601 4.29283C4.62601 4.29283 5.40506 4.04349 7.17796 5.2438C7.91799 5.03824 8.71165 4.93515 9.50008 4.93162C10.2885 4.93515 11.0828 5.03824 11.8242 5.2438C13.5949 4.04349 14.3729 4.29283 14.3729 4.29283C14.8779 5.57072 14.5602 6.51432 14.4639 6.74799C15.0587 7.39769 15.4187 8.2253 15.4187 9.23818C15.4187 12.8015 13.2483 13.5861 11.1825 13.8157C11.5152 14.1037 11.8118 14.6682 11.8118 15.5338C11.8118 16.7751 11.801 17.7742 11.801 18.0798C11.801 18.3266 11.968 18.6159 12.4383 18.5248C16.1225 17.2967 18.7773 13.8204 18.7773 9.72273C18.7773 4.59886 14.6236 0.445312 9.50008 0.445312ZM3.69735 13.6612C3.67692 13.7073 3.60441 13.7211 3.53834 13.6895C3.47105 13.6592 3.43326 13.5964 3.45508 13.5501C3.47505 13.5026 3.54772 13.4894 3.61485 13.5212C3.6823 13.5515 3.7207 13.615 3.69735 13.6612ZM4.1537 14.0684C4.10945 14.1094 4.02296 14.0904 3.96427 14.0255C3.90359 13.9608 3.89222 13.8744 3.93708 13.8327C3.98271 13.7917 4.06659 13.8109 4.12743 13.8756C4.18811 13.941 4.19994 14.0269 4.1537 14.0684ZM4.46677 14.5894C4.40993 14.6289 4.31698 14.5918 4.25952 14.5093C4.20268 14.4268 4.20268 14.3279 4.26075 14.2883C4.31836 14.2486 4.40993 14.2843 4.46815 14.3661C4.52484 14.45 4.52484 14.549 4.46677 14.5894ZM4.99624 15.1927C4.94539 15.2488 4.83708 15.2338 4.7578 15.1573C4.67669 15.0824 4.6541 14.9763 4.70511 14.9202C4.75658 14.864 4.8655 14.8798 4.94539 14.9557C5.02589 15.0304 5.05047 15.1373 4.99624 15.1927ZM5.68053 15.3964C5.6581 15.4691 5.55378 15.5021 5.4487 15.4713C5.34377 15.4395 5.2751 15.3543 5.2963 15.2809C5.31811 15.2078 5.42289 15.1734 5.52874 15.2064C5.63352 15.2381 5.70234 15.3225 5.68053 15.3964ZM6.45927 15.4828C6.46189 15.5594 6.37278 15.6228 6.26247 15.6242C6.15155 15.6266 6.06183 15.5647 6.0606 15.4895C6.0606 15.4122 6.14771 15.3493 6.25863 15.3475C6.36894 15.3453 6.45927 15.4068 6.45927 15.4828ZM7.22431 15.4535C7.23752 15.5282 7.16086 15.6048 7.05132 15.6253C6.94362 15.6449 6.84392 15.5989 6.83025 15.5248C6.81688 15.4483 6.89492 15.3716 7.00246 15.3518C7.11216 15.3328 7.21033 15.3776 7.22431 15.4535Z" fill="#9B9B9B"/>
</g>
</svg>
