<?xml version="1.0" encoding="utf-8"?>
<!-- Generator: Adobe Illustrator 26.2.1, SVG Export Plug-In . SVG Version: 6.00 Build 0)  -->
<svg version="1.1" id="Layer_1" xmlns="http://www.w3.org/2000/svg" xmlns:xlink="http://www.w3.org/1999/xlink" x="0px" y="0px"
	 viewBox="0 0 100 100" style="enable-background:new 0 0 100 100;" xml:space="preserve">
<style type="text/css">
	.st0{fill:#FEBE0B;}
	.st1{fill:#EE373E;}
	.st2{fill:#42A145;}
	.st3{fill:#1C57B9;}
	.st4{fill:#8542D4;}
	.st5{fill:#58595B;}
</style>
<g>
	<path class="st0" d="M89,47.7c0,4.9-4,8.9-8.9,8.9c-4.9,0-8.9-4-8.9-8.9c0-4.9,4-8.9,8.9-8.9C85,38.8,89,42.8,89,47.7z"/>
	<path class="st1" d="M77,22.4c0,6.2-5,11.2-11.2,11.2c-6.2,0-11.2-5-11.2-11.2c0-6.2,5-11.2,11.2-11.2C72,11.2,77,16.2,77,22.4z"/>
	<path class="st2" d="M84.5,74.7c0,4.2-3.4,7.6-7.6,7.6c-4.2,0-7.6-3.4-7.6-7.6c0-4.2,3.4-7.6,7.6-7.6
		C81.1,67.1,84.5,70.5,84.5,74.7z"/>
	<path class="st3" d="M60.1,83.9c0,3.6-2.9,6.5-6.5,6.5c-3.6,0-6.5-2.9-6.5-6.5c0-3.6,2.9-6.5,6.5-6.5
		C57.2,77.4,60.1,80.3,60.1,83.9z"/>
	<path class="st4" d="M36.7,75.8c0,3-2.5,5.5-5.5,5.5c-3,0-5.5-2.5-5.5-5.5s2.5-5.5,5.5-5.5C34.2,70.2,36.7,72.7,36.7,75.8z"/>
	<g>
		<g>
			<path class="st5" d="M28.9,29.3l19.5,19.5c2.7,2.7,2.9,3.6,3.2,5.3c0.1,0.7,0.3,1.5,0.6,2.5c0.9,3,2.4,4.5,4.1,6.2
				c0.7,0.7,1.3,1.4,2.1,2.3c0.7,0.9,1,1.6,0.7,2l0,0l-0.2,0.2c-0.1,0.1-0.3,0.3-0.7,0.3c-0.4,0-1-0.3-1.6-0.8
				c-0.9-0.8-1.6-1.4-2.3-2.1c-1.7-1.7-3.2-3.1-6.2-4.1c-1-0.3-1.8-0.5-2.5-0.6c-1.7-0.3-2.6-0.5-5.3-3.2L20.9,37.4l4-4L28.9,29.3
				 M28.9,26.2l-5.6,5.6l-5.6,5.6c0,0,16.8,16.8,21.1,21.1c4.3,4.3,5.3,3.3,8.8,4.4c3.5,1.1,4.5,3,7.7,5.7c1.2,1,2.2,1.3,3,1.3
				c1.5,0,2.3-1,2.3-1s2.2-2-0.5-5.2c-2.7-3.2-4.6-4.2-5.7-7.7c-1.1-3.5-0.1-4.5-4.4-8.8C45.7,43,28.9,26.2,28.9,26.2L28.9,26.2z"/>
			<path class="st5" d="M41.8,34.8l-1.7-1.7c-0.9-0.9-2.4-0.9-3.3,0l-1,1c-0.3-1.3-1-2.5-2-3.5l-8.9-8.9c-3-3-7.9-3-10.9,0l-0.7,0.7
				c-3,3-3,7.9,0,10.9l8.9,8.9c1,1,2.2,1.7,3.5,2l-1,1c-0.9,0.9-0.9,2.4,0,3.3l1.7,1.7c0.9,0.9,2.4,0.9,3.3,0l12.1-12.1
				C42.7,37.2,42.7,35.7,41.8,34.8z"/>
		</g>
		<g>
			<path class="st5" d="M60.1,63.7c-1.7-2-3.1-3.1-4.1-4.5L53.4,59H39.4c3.8,3.6,4.8,2.8,8.2,3.8c3.5,1.1,4.5,3,7.7,5.7
				c3.2,2.7,5.3,0.3,5.3,0.3S62.9,66.9,60.1,63.7z"/>
		</g>
	</g>
</g>
</svg>
