<?xml version="1.0" encoding="utf-8"?>
<!-- Generator: Adobe Illustrator 26.2.1, SVG Export Plug-In . SVG Version: 6.00 Build 0)  -->
<svg version="1.1" xmlns="http://www.w3.org/2000/svg" xmlns:xlink="http://www.w3.org/1999/xlink" x="0px" y="0px"
	 viewBox="0 0 800 800" style="enable-background:new 0 0 800 800;" xml:space="preserve">
<style type="text/css">
	.st0{fill-rule:evenodd;clip-rule:evenodd;fill:#FFFFFF;}
</style>
<g id="_x31_3">
	<g>
		<path class="st0" d="M589.4,394c0-108-87.5-195.4-195.4-195.4c-108,0-195.4,87.5-195.4,195.4c0,108,87.5,195.4,195.4,195.4
			C502,589.4,589.4,502,589.4,394L589.4,394z M585.7,172c-17.4,0-31.4,14.1-31.4,31.4c0,17.4,14,31.5,31.4,31.5
			c17.3,0,31.4-14,31.4-31.5C617.2,186.1,603.1,172,585.7,172L585.7,172z M234.2,126.8h319.5c59.2,0,107.4,48.4,107.4,107.4v319.5
			c0,59.2-48.2,107.4-107.4,107.4H234.2c-59.1,0-107.4-48.2-107.4-107.4V234.2C126.8,175.2,175.2,126.8,234.2,126.8L234.2,126.8z
			 M553.8,91H234.2C155.5,91,91,155.5,91,234.2v319.5C91,632.6,155.5,697,234.2,697h319.5c78.9,0,143.2-64.4,143.2-143.2V234.2
			C697,155.5,632.7,91,553.8,91L553.8,91z M239.1,394c0-85.5,69.4-154.9,154.9-154.9S548.9,308.5,548.9,394
			c0,85.5-69.4,154.9-154.9,154.9S239.1,479.5,239.1,394L239.1,394z"/>
	</g>
</g>
<g id="Layer_1">
</g>
</svg>
